<svg aria-hidden="true" style="position: absolute; width: 0; height: 0; overflow: hidden;" version="1.1" xmlns="http://www.w3.org/2000/svg" xmlns:xlink="http://www.w3.org/1999/xlink">
<defs>
<symbol id="icon-americanexpress" viewBox="0 0 32 32">
<path fill="#2e77bc" style="fill: var(--color1, #2e77bc)" d="M21.353 19.171c0-0.427-0.18-0.661-0.459-0.829-0.28-0.16-0.619-0.18-1.080-0.18h-2.057v3.76h0.9v-1.369h0.96c0.32 0 0.52 0.032 0.637 0.167 0.16 0.173 0.139 0.507 0.139 0.733v0.467h0.88v-0.74c-0.003-0.333-0.023-0.501-0.144-0.688-0.080-0.107-0.24-0.24-0.44-0.312l0.027-0.011c0.24-0.096 0.64-0.396 0.637-0.997zM20.193 19.713l-0.037-0.003c-0.12 0.071-0.26 0.077-0.44 0.077h-1.080v-0.84h1.099c0.16 0 0.32 0 0.44 0.067 0.131 0.064 0.208 0.196 0.2 0.34 0 0.16-0.060 0.287-0.181 0.359zM27.063 21.116h-1.729v0.8h1.739c0.901 0 1.4-0.371 1.4-1.179 0-0.373-0.088-0.597-0.249-0.776-0.204-0.177-0.523-0.257-0.973-0.276l-0.501-0.020c-0.139 0-0.24 0-0.34-0.040-0.12-0.040-0.2-0.14-0.2-0.28 0-0.12 0.023-0.221 0.12-0.28 0.111-0.061 0.236-0.088 0.363-0.080h1.64v-0.803h-1.8c-0.939 0-1.277 0.583-1.277 1.12 0 1.2 1.035 1.14 1.876 1.16 0.139 0 0.24 0.020 0.3 0.080 0.061 0.040 0.109 0.141 0.109 0.24 0 0.103-0.047 0.2-0.107 0.24-0.080 0.071-0.2 0.093-0.369 0.093zM0 0v13.461l1.080-2.501h2.333l0.3 0.619v-0.619h2.724l0.6 1.36 0.583-1.351h8.669c0.393 0 0.747 0.076 1.008 0.315v-0.307h2.383v0.307c0.409-0.227 0.915-0.307 1.493-0.307h3.475l0.32 0.621v-0.621h2.557l0.339 0.62v-0.621h2.477v5.264h-2.515l-0.48-0.8v0.78h-3.137l-0.341-0.84h-0.777l-0.36 0.819h-1.617c-0.64 0-1.12-0.139-1.44-0.32v0.32h-3.853v-1.179c0-0.16-0.040-0.16-0.14-0.18h-0.14v1.381h-7.451v-0.64l-0.28 0.64h-1.556l-0.269-0.64v0.62h-3.004l-0.341-0.832h-0.772l-0.341 0.832h-1.525v15.799h31.715v-9.477c-0.36 0.18-0.817 0.24-1.297 0.24h-2.297v-0.34c-0.28 0.22-0.76 0.34-1.219 0.34h-7.288v-1.2c0-0.16-0.024-0.16-0.16-0.16h-0.1v1.363h-2.4v-1.421c-0.397 0.181-0.857 0.2-1.237 0.181h-0.285v1.22h-2.907l-0.72-0.823-0.76 0.8h-4.721v-5.24h4.813l0.691 0.803 0.739-0.8h3.216c0.373 0 0.987 0.040 1.256 0.3v-0.32h2.903c0.269 0 0.859 0.060 1.204 0.3v-0.32h4.353v0.32c0.217-0.219 0.677-0.32 1.071-0.32h2.52v0.32c0.259-0.2 0.619-0.32 1.12-0.32h1.568v-17.445zM28.208 19.94c0.005 0.007 0.008 0.016 0.013 0.021 0.013 0.013 0.032 0.013 0.043 0.027zM31.771 17.443h0.087v0.74h-0.087zM31.82 20.040v-0.007c-0.040-0.033-0.061-0.064-0.1-0.093-0.2-0.204-0.52-0.287-1.019-0.3l-0.48-0.016c-0.16 0-0.259-0.009-0.36-0.040-0.12-0.040-0.2-0.14-0.2-0.28 0-0.12 0.040-0.213 0.12-0.272 0.101-0.060 0.2-0.067 0.36-0.067h1.631v-0.784h-1.711c-0.92 0-1.28 0.583-1.28 1.12 0 1.2 1.040 1.14 1.88 1.16 0.139 0 0.24 0.020 0.299 0.080 0.061 0.040 0.101 0.141 0.101 0.24 0 0.093-0.045 0.184-0.12 0.24-0.060 0.075-0.181 0.093-0.36 0.093h-1.717v0.807h1.716c0.56 0 0.979-0.157 1.2-0.48h0.040c0.12-0.179 0.18-0.4 0.18-0.697 0-0.32-0.060-0.52-0.18-0.704zM24.796 18.944v-0.777h-2.98v3.777h2.98v-0.78h-2.093v-0.76h2.044v-0.779h-2.043v-0.68zM18.013 11.716h0.913v3.751h-0.912zM17.501 12.724l-0.009 0.008c0-0.419-0.173-0.667-0.453-0.832-0.289-0.167-0.627-0.18-1.080-0.18h-2.052v3.76h0.899v-1.379h0.96c0.32 0 0.52 0.040 0.649 0.16 0.163 0.181 0.143 0.504 0.143 0.731v0.472h0.903v-0.737c0-0.333-0.021-0.5-0.147-0.688-0.12-0.143-0.269-0.253-0.44-0.316 0.229-0.093 0.629-0.4 0.628-0.999zM16.361 13.252h-0.020c-0.12 0.072-0.26 0.075-0.44 0.075h-1.101v-0.831h1.1c0.16 0 0.32 0.005 0.44 0.067 0.12 0.053 0.2 0.171 0.2 0.333s-0.063 0.293-0.179 0.356zM21.227 12.497h0.843v-0.8h-0.859c-0.619 0-1.072 0.14-1.36 0.44-0.381 0.4-0.483 0.92-0.483 1.48 0 0.683 0.164 1.111 0.48 1.432 0.309 0.317 0.86 0.413 1.293 0.413h1.040l0.34-0.836h1.853l0.349 0.836h1.813v-2.813l1.696 2.813h1.267l0.003 0.003v-3.751h-0.912v2.617l-1.573-2.613h-1.36v3.481l-1.511-3.541h-1.339l-1.257 2.96h-0.4c-0.236 0-0.483-0.040-0.624-0.179-0.167-0.2-0.248-0.48-0.248-0.883 0-0.38 0.107-0.68 0.259-0.84 0.177-0.18 0.363-0.22 0.689-0.22zM23.451 12.353l0.619 1.491v0.003h-1.24zM3.173 14.627l0.339 0.837h1.821v-2.94l1.296 2.94h0.779l1.297-2.936 0.020 2.936h0.92v-3.747h-1.488l-1.076 2.539-1.168-2.54h-1.456v3.551l-1.517-3.551h-1.329l-1.597 3.747h0.96l0.347-0.835zM2.256 12.353l0.613 1.491-0.004 0.003h-1.22zM15.808 18.16h-2.856l-1.133 1.231-1.1-1.229h-3.591v3.76h3.539l1.14-1.243 1.099 1.24h1.736v-1.253h1.117c0.8 0 1.56-0.219 1.56-1.26l-0.008-0.004c0-1.040-0.797-1.24-1.503-1.241zM10.227 21.137l-0.019-0.003h-2.181v-0.743h1.96v-0.765h-1.96v-0.68h2.24l0.977 1.093zM13.749 21.577l-1.373-1.529 1.373-1.477zM15.82 19.9h-1.18v-0.956h1.18c0.32 0 0.56 0.131 0.56 0.459 0 0.324-0.2 0.496-0.56 0.497zM13.289 12.497v-0.781h-2.983v3.751h2.983v-0.773h-2.089v-0.752h2.036v-0.768h-2.036v-0.676z"></path>
</symbol>
<symbol id="icon-mastercard" viewBox="0 0 32 32">
<path fill="#eb001b" style="fill: var(--color2, #eb001b)" d="M15.124 24.041c0.077 0.065 0.16 0.131 0.241 0.195-1.569 1.044-3.453 1.651-5.476 1.651-5.463 0.001-9.889-4.425-9.889-9.887 0-5.46 4.427-9.888 9.888-9.888 2.024 0 3.908 0.608 5.473 1.651-0.080 0.068-0.16 0.131-0.22 0.2-2.341 2.023-3.681 4.955-3.681 8.037 0 3.081 1.335 6.013 3.664 8.041zM22.112 6.112c-2.027 0-3.908 0.608-5.473 1.651 0.080 0.068 0.16 0.131 0.22 0.2 2.341 2.023 3.681 4.955 3.681 8.037 0 3.080-1.335 6.009-3.664 8.041-0.077 0.065-0.16 0.131-0.241 0.195 1.569 1.044 3.451 1.651 5.476 1.651 5.463 0.001 9.889-4.425 9.889-9.887 0-5.459-4.427-9.888-9.888-9.888zM16 8.232c-0.128 0.1-0.252 0.2-0.373 0.308-2.085 1.812-3.401 4.48-3.401 7.46 0 2.981 1.316 5.648 3.401 7.46 0.12 0.107 0.247 0.211 0.373 0.309 0.128-0.099 0.252-0.203 0.373-0.309 2.084-1.812 3.401-4.479 3.401-7.46 0-2.98-1.316-5.648-3.401-7.46-0.12-0.107-0.245-0.208-0.373-0.308z"></path>
</symbol>
<symbol id="icon-paypal" viewBox="0 0 32 32">
<path fill="#00457c" style="fill: var(--color3, #00457c)" d="M9.211 32h-4.139c-0.885 0-1.448-0.705-1.248-1.573l0.199-0.899h2.761c0.888 0 1.781-0.711 1.976-1.576l1.419-6.123c0.2-0.864 1.088-1.573 1.973-1.573h1.177c5.052 0 8.979-1.039 11.787-3.12s4.213-4.8 4.213-8.18c0-1.5-0.26-2.74-0.784-3.719 0-0.021-0.021-0.041-0.021-0.061l0.18 0.1c1 0.62 1.76 1.419 2.281 2.419 0.539 1 0.797 2.24 0.797 3.721 0 3.38-1.399 6.099-4.219 8.18-2.8 2.060-6.74 3.099-11.779 3.099h-1.2c-0.88 0-1.779 0.7-1.979 1.581l-1.42 6.14c-0.199 0.86-1.080 1.56-1.96 1.56zM5.641 28.407h-4.14c-0.884 0-1.445-0.705-1.248-1.573l5.831-25.257c0.201-0.871 1.087-1.576 1.975-1.576h8.62c1.86 0 3.479 0.131 4.864 0.385 1.38 0.252 2.56 0.692 3.579 1.32 0.981 0.62 1.763 1.429 2.263 2.424 0.519 0.997 0.779 2.24 0.779 3.729 0 3.38-1.401 6.099-4.219 8.159-2.8 2.081-6.741 3.101-11.781 3.101h-1.177c-0.88 0-1.771 0.699-1.971 1.559l-1.415 6.119c-0.199 0.861-1.089 1.563-1.98 1.563zM15.569 5.248h-1.352c-0.888 0-1.776 0.705-1.973 1.571l-1.24 5.36c-0.2 0.864 0.36 1.572 1.24 1.572h1.021c2.219 0 3.96-0.457 5.2-1.361 1.239-0.915 1.86-2.205 1.86-3.883 0-1.107-0.401-1.927-1.2-2.453-0.8-0.539-2-0.807-3.581-0.807z"></path>
</symbol>
<symbol id="icon-visa" viewBox="0 0 32 32">
<path fill="#142787" style="fill: var(--color4, #142787)" d="M23.26 11.497c-0.516-0.195-1.32-0.401-2.32-0.401-2.56 0-4.367 1.291-4.38 3.14-0.016 1.36 1.285 2.125 2.268 2.581 1.009 0.467 1.347 0.76 1.344 1.18-0.007 0.636-0.807 0.924-1.549 0.924-1.021 0-1.581-0.143-2.441-0.5l-0.319-0.148-0.361 2.131c0.621 0.26 1.741 0.483 2.9 0.5 2.721 0 4.5-1.281 4.521-3.252 0.021-1.084-0.68-1.907-2.161-2.584-0.899-0.44-1.459-0.735-1.459-1.181 0-0.395 0.479-0.816 1.479-0.816 0.86-0.013 1.461 0.172 1.94 0.364l0.24 0.108 0.361-2.059zM29.904 11.271h-2c-0.623 0-1.088 0.169-1.361 0.788l-3.847 8.712h2.721l0.544-1.427 3.32 0.003c0.081 0.333 0.32 1.424 0.32 1.424h2.399zM12.88 11.191h2.591l-1.62 9.505h-2.592l1.621-9.508zM6.295 16.429l0.269 1.32 2.535-6.479h2.745l-4.081 9.487h-2.739l-2.24-8.035c-0.047-0.137-0.104-0.231-0.24-0.316-0.757-0.396-1.604-0.719-2.544-0.943l0.033-0.2h4.175c0.565 0.021 1.021 0.2 1.177 0.805l0.909 4.364zM26.705 17.399l1.033-2.659c-0.013 0.027 0.213-0.549 0.344-0.907l0.177 0.82 0.599 2.743h-2.153z"></path>
</symbol>
<symbol id="icon-phone" viewBox="0 0 32 32">
<path d="M22 20c-2 2-2 4-4 4s-4-2-6-4-4-4-4-6 2-2 4-4-4-8-6-8-6 6-6 6c0 4 4.109 12.109 8 16s12 8 16 8c0 0 6-4 6-6s-6-8-8-6z"></path>
</symbol>
<symbol id="icon-location" viewBox="0 0 32 32">
<path d="M16 0c-5.523 0-10 4.477-10 10 0 10 10 22 10 22s10-12 10-22c0-5.523-4.477-10-10-10zM16 16c-3.314 0-6-2.686-6-6s2.686-6 6-6 6 2.686 6 6-2.686 6-6 6z"></path>
</symbol>
<symbol id="icon-enter" viewBox="0 0 32 32">
<path d="M12 16h-10v-4h10v-4l6 6-6 6zM32 0v26l-12 6v-6h-12v-8h2v6h10v-18l8-4h-18v8h-2v-10z"></path>
</symbol>
<symbol id="icon-arrow-right2" viewBox="0 0 32 32">
<path d="M19.414 27.414l10-10c0.781-0.781 0.781-2.047 0-2.828l-10-10c-0.781-0.781-2.047-0.781-2.828 0s-0.781 2.047 0 2.828l6.586 6.586h-19.172c-1.105 0-2 0.895-2 2s0.895 2 2 2h19.172l-6.586 6.586c-0.39 0.39-0.586 0.902-0.586 1.414s0.195 1.024 0.586 1.414c0.781 0.781 2.047 0.781 2.828 0z"></path>
</symbol>
<symbol id="icon-circle-right" viewBox="0 0 32 32">
<path d="M16 0c-8.837 0-16 7.163-16 16s7.163 16 16 16 16-7.163 16-16-7.163-16-16-16zM16 29c-7.18 0-13-5.82-13-13s5.82-13 13-13 13 5.82 13 13-5.82 13-13 13z"></path>
<path d="M11.086 22.086l2.829 2.829 8.914-8.914-8.914-8.914-2.828 2.828 6.086 6.086z"></path>
</symbol>
<symbol id="icon-mail3" viewBox="0 0 32 32">
<path d="M26.667 0h-21.333c-2.934 0-5.334 2.4-5.334 5.334v21.332c0 2.936 2.4 5.334 5.334 5.334h21.333c2.934 0 5.333-2.398 5.333-5.334v-21.332c0-2.934-2.399-5.334-5.333-5.334zM5.707 27.707l-2.414-2.414 8-8 0.914 0.914-6.5 9.5zM4.793 6.207l0.914-0.914 10.293 8.293 10.293-8.293 0.914 0.914-11.207 13.207-11.207-13.207zM26.293 27.707l-6.5-9.5 0.914-0.914 8 8-2.414 2.414z"></path>
</symbol>
<symbol id="icon-facebook" viewBox="0 0 32 32">
<path d="M19 6h5v-6h-5c-3.86 0-7 3.14-7 7v3h-4v6h4v16h6v-16h5l1-6h-6v-3c0-0.542 0.458-1 1-1z"></path>
</symbol>
<symbol id="icon-instagram" viewBox="0 0 32 32">
<path d="M16 2.881c4.275 0 4.781 0.019 6.462 0.094 1.563 0.069 2.406 0.331 2.969 0.55 0.744 0.288 1.281 0.638 1.837 1.194 0.563 0.563 0.906 1.094 1.2 1.838 0.219 0.563 0.481 1.412 0.55 2.969 0.075 1.688 0.094 2.194 0.094 6.463s-0.019 4.781-0.094 6.463c-0.069 1.563-0.331 2.406-0.55 2.969-0.288 0.744-0.637 1.281-1.194 1.837-0.563 0.563-1.094 0.906-1.837 1.2-0.563 0.219-1.413 0.481-2.969 0.55-1.688 0.075-2.194 0.094-6.463 0.094s-4.781-0.019-6.463-0.094c-1.563-0.069-2.406-0.331-2.969-0.55-0.744-0.288-1.281-0.637-1.838-1.194-0.563-0.563-0.906-1.094-1.2-1.837-0.219-0.563-0.481-1.413-0.55-2.969-0.075-1.688-0.094-2.194-0.094-6.463s0.019-4.781 0.094-6.463c0.069-1.563 0.331-2.406 0.55-2.969 0.288-0.744 0.638-1.281 1.194-1.838 0.563-0.563 1.094-0.906 1.838-1.2 0.563-0.219 1.412-0.481 2.969-0.55 1.681-0.075 2.188-0.094 6.463-0.094zM16 0c-4.344 0-4.887 0.019-6.594 0.094-1.7 0.075-2.869 0.35-3.881 0.744-1.056 0.412-1.95 0.956-2.837 1.85-0.894 0.888-1.438 1.781-1.85 2.831-0.394 1.019-0.669 2.181-0.744 3.881-0.075 1.713-0.094 2.256-0.094 6.6s0.019 4.887 0.094 6.594c0.075 1.7 0.35 2.869 0.744 3.881 0.413 1.056 0.956 1.95 1.85 2.837 0.887 0.887 1.781 1.438 2.831 1.844 1.019 0.394 2.181 0.669 3.881 0.744 1.706 0.075 2.25 0.094 6.594 0.094s4.888-0.019 6.594-0.094c1.7-0.075 2.869-0.35 3.881-0.744 1.050-0.406 1.944-0.956 2.831-1.844s1.438-1.781 1.844-2.831c0.394-1.019 0.669-2.181 0.744-3.881 0.075-1.706 0.094-2.25 0.094-6.594s-0.019-4.887-0.094-6.594c-0.075-1.7-0.35-2.869-0.744-3.881-0.394-1.063-0.938-1.956-1.831-2.844-0.887-0.887-1.781-1.438-2.831-1.844-1.019-0.394-2.181-0.669-3.881-0.744-1.712-0.081-2.256-0.1-6.6-0.1v0z"></path>
<path d="M16 7.781c-4.537 0-8.219 3.681-8.219 8.219s3.681 8.219 8.219 8.219 8.219-3.681 8.219-8.219c0-4.537-3.681-8.219-8.219-8.219zM16 21.331c-2.944 0-5.331-2.387-5.331-5.331s2.387-5.331 5.331-5.331c2.944 0 5.331 2.387 5.331 5.331s-2.387 5.331-5.331 5.331z"></path>
<path d="M26.462 7.456c0 1.060-0.859 1.919-1.919 1.919s-1.919-0.859-1.919-1.919c0-1.060 0.859-1.919 1.919-1.919s1.919 0.859 1.919 1.919z"></path>
</symbol>
<symbol id="icon-twitter" viewBox="0 0 32 32">
<path d="M32 7.075c-1.175 0.525-2.444 0.875-3.769 1.031 1.356-0.813 2.394-2.1 2.887-3.631-1.269 0.75-2.675 1.3-4.169 1.594-1.2-1.275-2.906-2.069-4.794-2.069-3.625 0-6.563 2.938-6.563 6.563 0 0.512 0.056 1.012 0.169 1.494-5.456-0.275-10.294-2.888-13.531-6.862-0.563 0.969-0.887 2.1-0.887 3.3 0 2.275 1.156 4.287 2.919 5.463-1.075-0.031-2.087-0.331-2.975-0.819 0 0.025 0 0.056 0 0.081 0 3.181 2.263 5.838 5.269 6.437-0.55 0.15-1.131 0.231-1.731 0.231-0.425 0-0.831-0.044-1.237-0.119 0.838 2.606 3.263 4.506 6.131 4.563-2.25 1.762-5.075 2.813-8.156 2.813-0.531 0-1.050-0.031-1.569-0.094 2.913 1.869 6.362 2.95 10.069 2.95 12.075 0 18.681-10.006 18.681-18.681 0-0.287-0.006-0.569-0.019-0.85 1.281-0.919 2.394-2.075 3.275-3.394z"></path>
</symbol>
<symbol id="icon-youtube" viewBox="0 0 32 32">
<path d="M31.681 9.6c0 0-0.313-2.206-1.275-3.175-1.219-1.275-2.581-1.281-3.206-1.356-4.475-0.325-11.194-0.325-11.194-0.325h-0.012c0 0-6.719 0-11.194 0.325-0.625 0.075-1.987 0.081-3.206 1.356-0.963 0.969-1.269 3.175-1.269 3.175s-0.319 2.588-0.319 5.181v2.425c0 2.587 0.319 5.181 0.319 5.181s0.313 2.206 1.269 3.175c1.219 1.275 2.819 1.231 3.531 1.369 2.563 0.244 10.881 0.319 10.881 0.319s6.725-0.012 11.2-0.331c0.625-0.075 1.988-0.081 3.206-1.356 0.962-0.969 1.275-3.175 1.275-3.175s0.319-2.587 0.319-5.181v-2.425c-0.006-2.588-0.325-5.181-0.325-5.181zM12.694 20.15v-8.994l8.644 4.513-8.644 4.481z"></path>
</symbol>
<symbol id="icon-linkedin2" viewBox="0 0 32 32">
<path d="M12 12h5.535v2.837h0.079c0.77-1.381 2.655-2.837 5.464-2.837 5.842 0 6.922 3.637 6.922 8.367v9.633h-5.769v-8.54c0-2.037-0.042-4.657-3.001-4.657-3.005 0-3.463 2.218-3.463 4.509v8.688h-5.767v-18z"></path>
<path d="M2 12h6v18h-6v-18z"></path>
<path d="M8 7c0 1.657-1.343 3-3 3s-3-1.343-3-3c0-1.657 1.343-3 3-3s3 1.343 3 3z"></path>
</symbol>
</defs>
</svg>
